<mxfile host="drawio-plugin" modified="2023-01-08T20:32:41.599Z" agent="5.0 (Windows NT 6.2; Win64; x64) AppleWebKit/537.36 (KHTML, like Gecko) Chrome/104.0.5112.102 Safari/537.36" etag="D9KfDyktS_GkVcECCTob" version="20.5.3" type="embed"><diagram id="LH6tWjZvFSZW6psu7RjG" name="Seite-1"><mxGraphModel dx="1124" dy="610" grid="1" gridSize="10" guides="1" tooltips="1" connect="1" arrows="0" fold="1" page="1" pageScale="1" pageWidth="827" pageHeight="1169" background="#ffffff" math="0" shadow="0"><root><mxCell id="0"/><mxCell id="1" parent="0"/><mxCell id="BtA-ATTPOGwawzH3yXQa-1" value="User" style="swimlane;fontStyle=0;childLayout=stackLayout;horizontal=1;startSize=30;horizontalStack=0;resizeParent=1;resizeParentMax=0;resizeLast=0;collapsible=1;marginBottom=0;" parent="1" vertex="1"><mxGeometry x="320" y="20" width="160" height="210" as="geometry"/></mxCell><mxCell id="BtA-ATTPOGwawzH3yXQa-2" value="-userName:String{unique}" style="text;strokeColor=none;fillColor=none;align=left;verticalAlign=middle;spacingLeft=4;spacingRight=4;overflow=hidden;points=[[0,0.5],[1,0.5]];portConstraint=eastwest;rotatable=0;" parent="BtA-ATTPOGwawzH3yXQa-1" vertex="1"><mxGeometry y="30" width="160" height="30" as="geometry"/></mxCell><mxCell id="BtA-ATTPOGwawzH3yXQa-13" value="-role:Role" style="text;strokeColor=none;fillColor=none;align=left;verticalAlign=middle;spacingLeft=4;spacingRight=4;overflow=hidden;points=[[0,0.5],[1,0.5]];portConstraint=eastwest;rotatable=0;" parent="BtA-ATTPOGwawzH3yXQa-1" vertex="1"><mxGeometry y="60" width="160" height="30" as="geometry"/></mxCell><mxCell id="BtA-ATTPOGwawzH3yXQa-14" value="-password:String" style="text;strokeColor=none;fillColor=none;align=left;verticalAlign=middle;spacingLeft=4;spacingRight=4;overflow=hidden;points=[[0,0.5],[1,0.5]];portConstraint=eastwest;rotatable=0;" parent="BtA-ATTPOGwawzH3yXQa-1" vertex="1"><mxGeometry y="90" width="160" height="30" as="geometry"/></mxCell><mxCell id="BtA-ATTPOGwawzH3yXQa-15" value="-lastName:String" style="text;strokeColor=none;fillColor=none;align=left;verticalAlign=middle;spacingLeft=4;spacingRight=4;overflow=hidden;points=[[0,0.5],[1,0.5]];portConstraint=eastwest;rotatable=0;" parent="BtA-ATTPOGwawzH3yXQa-1" vertex="1"><mxGeometry y="120" width="160" height="30" as="geometry"/></mxCell><mxCell id="BtA-ATTPOGwawzH3yXQa-4" value="-firstName:String" style="text;strokeColor=none;fillColor=none;align=left;verticalAlign=middle;spacingLeft=4;spacingRight=4;overflow=hidden;points=[[0,0.5],[1,0.5]];portConstraint=eastwest;rotatable=0;" parent="BtA-ATTPOGwawzH3yXQa-1" vertex="1"><mxGeometry y="150" width="160" height="30" as="geometry"/></mxCell><mxCell id="BtA-ATTPOGwawzH3yXQa-20" value="-emailAdress:String" style="text;strokeColor=none;fillColor=none;align=left;verticalAlign=middle;spacingLeft=4;spacingRight=4;overflow=hidden;points=[[0,0.5],[1,0.5]];portConstraint=eastwest;rotatable=0;" parent="BtA-ATTPOGwawzH3yXQa-1" vertex="1"><mxGeometry y="180" width="160" height="30" as="geometry"/></mxCell><mxCell id="BtA-ATTPOGwawzH3yXQa-16" value="Role" style="swimlane;fontStyle=0;childLayout=stackLayout;horizontal=1;startSize=30;horizontalStack=0;resizeParent=1;resizeParentMax=0;resizeLast=0;collapsible=1;marginBottom=0;" parent="1" vertex="1"><mxGeometry x="560" y="50" width="140" height="90" as="geometry"/></mxCell><mxCell id="BtA-ATTPOGwawzH3yXQa-17" value="ADMIN" style="text;strokeColor=none;fillColor=none;align=left;verticalAlign=middle;spacingLeft=4;spacingRight=4;overflow=hidden;points=[[0,0.5],[1,0.5]];portConstraint=eastwest;rotatable=0;" parent="BtA-ATTPOGwawzH3yXQa-16" vertex="1"><mxGeometry y="30" width="140" height="30" as="geometry"/></mxCell><mxCell id="BtA-ATTPOGwawzH3yXQa-18" value="STUDENT" style="text;strokeColor=none;fillColor=none;align=left;verticalAlign=middle;spacingLeft=4;spacingRight=4;overflow=hidden;points=[[0,0.5],[1,0.5]];portConstraint=eastwest;rotatable=0;" parent="BtA-ATTPOGwawzH3yXQa-16" vertex="1"><mxGeometry y="60" width="140" height="30" as="geometry"/></mxCell><mxCell id="BtA-ATTPOGwawzH3yXQa-23" value="Use" style="endArrow=open;endSize=12;dashed=1;html=1;rounded=0;endFill=0;startArrow=none;startFill=0;entryX=0;entryY=0.5;entryDx=0;entryDy=0;exitX=1;exitY=0.5;exitDx=0;exitDy=0;" parent="1" source="BtA-ATTPOGwawzH3yXQa-13" target="BtA-ATTPOGwawzH3yXQa-17" edge="1"><mxGeometry width="160" relative="1" as="geometry"><mxPoint x="330" y="80" as="sourcePoint"/><mxPoint x="460" y="80" as="targetPoint"/></mxGeometry></mxCell><mxCell id="BtA-ATTPOGwawzH3yXQa-27" value="Deck" style="swimlane;fontStyle=0;childLayout=stackLayout;horizontal=1;startSize=26;fillColor=none;horizontalStack=0;resizeParent=1;resizeParentMax=0;resizeLast=0;collapsible=1;marginBottom=0;" parent="1" vertex="1"><mxGeometry x="120" y="320" width="200" height="182" as="geometry"/></mxCell><mxCell id="BtA-ATTPOGwawzH3yXQa-28" value="-name:String" style="text;strokeColor=none;fillColor=none;align=left;verticalAlign=top;spacingLeft=4;spacingRight=4;overflow=hidden;rotatable=0;points=[[0,0.5],[1,0.5]];portConstraint=eastwest;" parent="BtA-ATTPOGwawzH3yXQa-27" vertex="1"><mxGeometry y="26" width="200" height="26" as="geometry"/></mxCell><mxCell id="BtA-ATTPOGwawzH3yXQa-29" value="-description:String" style="text;strokeColor=none;fillColor=none;align=left;verticalAlign=top;spacingLeft=4;spacingRight=4;overflow=hidden;rotatable=0;points=[[0,0.5],[1,0.5]];portConstraint=eastwest;" parent="BtA-ATTPOGwawzH3yXQa-27" vertex="1"><mxGeometry y="52" width="200" height="26" as="geometry"/></mxCell><mxCell id="BtA-ATTPOGwawzH3yXQa-31" value="-createDate:Date&#10;" style="text;strokeColor=none;fillColor=none;align=left;verticalAlign=top;spacingLeft=4;spacingRight=4;overflow=hidden;rotatable=0;points=[[0,0.5],[1,0.5]];portConstraint=eastwest;" parent="BtA-ATTPOGwawzH3yXQa-27" vertex="1"><mxGeometry y="78" width="200" height="26" as="geometry"/></mxCell><mxCell id="16" value="-updateDate:date" style="text;strokeColor=none;fillColor=none;align=left;verticalAlign=top;spacingLeft=4;spacingRight=4;overflow=hidden;rotatable=0;points=[[0,0.5],[1,0.5]];portConstraint=eastwest;" vertex="1" parent="BtA-ATTPOGwawzH3yXQa-27"><mxGeometry y="104" width="200" height="26" as="geometry"/></mxCell><mxCell id="17" value="-isPublic:boolean" style="text;strokeColor=none;fillColor=none;align=left;verticalAlign=top;spacingLeft=4;spacingRight=4;overflow=hidden;rotatable=0;points=[[0,0.5],[1,0.5]];portConstraint=eastwest;" vertex="1" parent="BtA-ATTPOGwawzH3yXQa-27"><mxGeometry y="130" width="200" height="26" as="geometry"/></mxCell><mxCell id="18" value="-locked:boolean" style="text;strokeColor=none;fillColor=none;align=left;verticalAlign=top;spacingLeft=4;spacingRight=4;overflow=hidden;rotatable=0;points=[[0,0.5],[1,0.5]];portConstraint=eastwest;" vertex="1" parent="BtA-ATTPOGwawzH3yXQa-27"><mxGeometry y="156" width="200" height="26" as="geometry"/></mxCell><mxCell id="BtA-ATTPOGwawzH3yXQa-33" value="Card" style="swimlane;fontStyle=0;childLayout=stackLayout;horizontal=1;startSize=26;fillColor=none;horizontalStack=0;resizeParent=1;resizeParentMax=0;resizeLast=0;collapsible=1;marginBottom=0;" parent="1" vertex="1"><mxGeometry x="150" y="570" width="140" height="104" as="geometry"/></mxCell><mxCell id="BtA-ATTPOGwawzH3yXQa-34" value="-question:String" style="text;strokeColor=none;fillColor=none;align=left;verticalAlign=top;spacingLeft=4;spacingRight=4;overflow=hidden;rotatable=0;points=[[0,0.5],[1,0.5]];portConstraint=eastwest;" parent="BtA-ATTPOGwawzH3yXQa-33" vertex="1"><mxGeometry y="26" width="140" height="26" as="geometry"/></mxCell><mxCell id="BtA-ATTPOGwawzH3yXQa-35" value="-solution:String:" style="text;strokeColor=none;fillColor=none;align=left;verticalAlign=top;spacingLeft=4;spacingRight=4;overflow=hidden;rotatable=0;points=[[0,0.5],[1,0.5]];portConstraint=eastwest;" parent="BtA-ATTPOGwawzH3yXQa-33" vertex="1"><mxGeometry y="52" width="140" height="26" as="geometry"/></mxCell><mxCell id="BtA-ATTPOGwawzH3yXQa-50" value="-lastUpdated:Date" style="text;strokeColor=none;fillColor=none;align=left;verticalAlign=top;spacingLeft=4;spacingRight=4;overflow=hidden;rotatable=0;points=[[0,0.5],[1,0.5]];portConstraint=eastwest;" parent="BtA-ATTPOGwawzH3yXQa-33" vertex="1"><mxGeometry y="78" width="140" height="26" as="geometry"/></mxCell><mxCell id="cCh7i7W3EN08Jt0XsNlr-1" value="" style="endArrow=diamondThin;endFill=0;endSize=24;html=1;rounded=0;" parent="1" source="BtA-ATTPOGwawzH3yXQa-33" target="BtA-ATTPOGwawzH3yXQa-27" edge="1"><mxGeometry width="160" relative="1" as="geometry"><mxPoint x="280" y="550" as="sourcePoint"/><mxPoint x="440" y="550" as="targetPoint"/></mxGeometry></mxCell><mxCell id="2" value="UserDeck" style="swimlane;fontStyle=0;childLayout=stackLayout;horizontal=1;startSize=26;fillColor=none;horizontalStack=0;resizeParent=1;resizeParentMax=0;resizeLast=0;collapsible=1;marginBottom=0;" vertex="1" parent="1"><mxGeometry x="480" y="320" width="160" height="78" as="geometry"/></mxCell><mxCell id="3" value="-lastLearned:Date" style="text;strokeColor=none;fillColor=none;align=left;verticalAlign=top;spacingLeft=4;spacingRight=4;overflow=hidden;rotatable=0;points=[[0,0.5],[1,0.5]];portConstraint=eastwest;" vertex="1" parent="2"><mxGeometry y="26" width="160" height="26" as="geometry"/></mxCell><mxCell id="4" value="-reversed:boolean" style="text;strokeColor=none;fillColor=none;align=left;verticalAlign=top;spacingLeft=4;spacingRight=4;overflow=hidden;rotatable=0;points=[[0,0.5],[1,0.5]];portConstraint=eastwest;" vertex="1" parent="2"><mxGeometry y="52" width="160" height="26" as="geometry"/></mxCell><mxCell id="6" value="CardAlgorithmData" style="swimlane;fontStyle=0;childLayout=stackLayout;horizontal=1;startSize=26;fillColor=none;horizontalStack=0;resizeParent=1;resizeParentMax=0;resizeLast=0;collapsible=1;marginBottom=0;" vertex="1" parent="1"><mxGeometry x="480" y="596" width="160" height="52" as="geometry"/></mxCell><mxCell id="9" value="-algorithmData" style="text;strokeColor=none;fillColor=none;align=left;verticalAlign=top;spacingLeft=4;spacingRight=4;overflow=hidden;rotatable=0;points=[[0,0.5],[1,0.5]];portConstraint=eastwest;" vertex="1" parent="6"><mxGeometry y="26" width="160" height="26" as="geometry"/></mxCell><mxCell id="10" value="" style="endArrow=diamondThin;endFill=0;endSize=24;html=1;rounded=0;exitX=0.5;exitY=0;exitDx=0;exitDy=0;" edge="1" parent="1" source="6" target="2"><mxGeometry width="160" relative="1" as="geometry"><mxPoint x="559.6600000000001" y="520" as="sourcePoint"/><mxPoint x="560.7999999999997" y="423.7919999999999" as="targetPoint"/></mxGeometry></mxCell><mxCell id="13" value="" style="endArrow=diamondThin;endFill=1;endSize=24;html=1;rounded=0;exitX=1;exitY=0.5;exitDx=0;exitDy=0;" edge="1" parent="1" source="BtA-ATTPOGwawzH3yXQa-29" target="4"><mxGeometry width="160" relative="1" as="geometry"><mxPoint x="519.9999999999998" y="409.9999999999998" as="sourcePoint"/><mxPoint x="330.0000000000002" y="409.9999999999998" as="targetPoint"/></mxGeometry></mxCell><mxCell id="14" value="" style="endArrow=diamondThin;endFill=1;endSize=24;html=1;rounded=0;" edge="1" parent="1" source="BtA-ATTPOGwawzH3yXQa-35" target="9"><mxGeometry width="160" relative="1" as="geometry"><mxPoint x="300.0000000000002" y="539.9999999999999" as="sourcePoint"/><mxPoint x="459.9999999999998" y="539.9999999999999" as="targetPoint"/></mxGeometry></mxCell><mxCell id="19" value="" style="endArrow=open;endFill=1;endSize=12;html=1;rounded=0;" edge="1" parent="1" source="BtA-ATTPOGwawzH3yXQa-1" target="BtA-ATTPOGwawzH3yXQa-27"><mxGeometry width="160" relative="1" as="geometry"><mxPoint x="100" y="220" as="sourcePoint"/><mxPoint x="260" y="220" as="targetPoint"/></mxGeometry></mxCell><mxCell id="20" value="" style="endArrow=open;endFill=1;endSize=12;html=1;rounded=0;" edge="1" parent="1" source="BtA-ATTPOGwawzH3yXQa-1" target="2"><mxGeometry width="160" relative="1" as="geometry"><mxPoint x="343.9160839160836" y="240" as="sourcePoint"/><mxPoint x="287.27272727272725" y="330" as="targetPoint"/></mxGeometry></mxCell></root></mxGraphModel></diagram></mxfile>